Coordinates
version=1
nRows=8
nColumns=46
inDegrees=yes

Units are S.I. units (second, meters, Newtons, ...)
Angles are in degrees.

endheader
time	pelvis_tilt	pelvis_list	pelvis_rotation	pelvis_tx	pelvis_ty	pelvis_tz	bb_angle	bb_tx	bb_ty	bb_tz	hip_flexion_r	hip_adduction_r	hip_rotation_r	knee_angle_r	knee_angle_r_beta	ankle_angle_r	subtalar_angle_r	mtp_angle_r	crank_angle_r	hip_flexion_l	hip_adduction_l	hip_rotation_l	knee_angle_l	knee_angle_l_beta	ankle_angle_l	subtalar_angle_l	mtp_angle_l	crank_angle_l	lumbar_extension	lumbar_bending	lumbar_rotation	arm_flex_r	arm_add_r	arm_rot_r	elbow_flex_r	pro_sup_r	wrist_flex_r	wrist_dev_r	arm_flex_l	arm_add_l	arm_rot_l	elbow_flex_l	pro_sup_l	wrist_flex_l	wrist_dev_l
      7.50500000	    -19.08616461	     -4.30251433	     -6.98898828	      0.26369078	      1.18032154	     -0.19451436	      0.00000000	      0.50000000	      0.00000000	      0.25000000	     23.16935312	    -16.20678628	     -0.22304231	     57.85564917	      1.00977157	     -8.83845289	     -6.08357250	      0.00000000	      0.00000000	     24.18562908	    -14.22113651	    -11.89083327	     23.63245094	      0.41246408	     -1.92223644	      6.96420495	      0.00000000	      0.00000000	    -46.06025245	      3.44364414	      1.70047164	     75.04277073	      7.42329758	     59.66483341	     12.08586612	     46.10486813	      0.00000000	      0.00000000	     55.56480466	    -13.79846947	     13.89599307	     47.35993789	     50.31606508	      0.00000000	      0.00000000
      7.51000000	    -19.07556551	     -4.47112584	     -7.14513873	      0.26384448	      1.18079532	     -0.19523224	      0.00000000	      0.50000000	      0.00000000	      0.25000000	     23.39285623	    -16.22218997	     -0.07267661	     58.91449615	      1.02825193	     -8.91045355	     -6.57775244	      0.00000000	      0.00000000	     24.20013105	    -14.37374758	    -11.58351484	     24.10277703	      0.42067282	     -2.15151208	      6.43209575	      0.00000000	      0.00000000	    -46.16048744	      3.52213263	      1.87737810	     75.11222684	      7.42664714	     59.84120639	     11.98714566	     46.07620945	      0.00000000	      0.00000000	     55.51094533	    -13.68277817	     13.64719211	     47.41823200	     50.33977559	      0.00000000	      0.00000000
      7.51500000	    -18.90619983	     -4.60976557	     -7.29895967	      0.26420240	      1.18146969	     -0.19594720	      0.00000000	      0.50000000	      0.00000000	      0.25000000	     23.42632034	    -16.32185834	      0.00845923	     59.90428154	      1.04552695	     -8.95938194	     -6.85533082	      0.00000000	      0.00000000	     23.99336884	    -14.49971306	    -11.42868678	     24.53630719	      0.42823935	     -2.32148421	      6.15553338	      0.00000000	      0.00000000	    -46.43325463	      3.58531395	      2.02750635	     75.22804601	      7.44146447	     59.87409569	     11.98421494	     46.06841753	      0.00000000	      0.00000000	     55.48958493	    -13.65887589	     13.58667898	     47.43501591	     50.34476445	      0.00000000	      0.00000000
      7.52000000	    -18.80086570	     -4.76005824	     -7.48293396	      0.26449057	      1.18201040	     -0.19668203	      0.00000000	      0.50000000	      0.00000000	      0.25000000	     23.55879408	    -16.40610473	      0.11341272	     60.94465229	      1.06368484	     -8.97318037	     -7.24707555	      0.00000000	      0.00000000	     23.84754145	    -14.63222868	    -11.23402736	     24.98489644	      0.43606871	     -2.45843503	      5.75667755	      0.00000000	      0.00000000	    -46.63310570	      3.62185625	      2.19777812	     75.31694828	      7.43302984	     59.91626251	     11.95597560	     46.05852363	      0.00000000	      0.00000000	     55.46932208	    -13.60758378	     13.50667802	     47.47848281	     50.35306412	      0.00000000	      0.00000000
      7.52500000	    -18.73814398	     -4.92779268	     -7.64643903	      0.26484448	      1.18251126	     -0.19741834	      0.00000000	      0.50000000	      0.00000000	      0.25000000	     23.71216266	    -16.46709903	      0.21253575	     61.96841629	      1.08155290	     -8.94368633	     -7.60396619	      0.00000000	      0.00000000	     23.73187188	    -14.77555643	    -11.01908965	     25.39436861	      0.44321534	     -2.57984726	      5.36053688	      0.00000000	      0.00000000	    -46.77333427	      3.67753107	      2.37754197	     75.36408982	      7.41472343	     59.96335148	     11.92329479	     46.05075897	      0.00000000	      0.00000000	     55.41282074	    -13.53992645	     13.42020604	     47.52604062	     50.36145090	      0.00000000	      0.00000000
      7.53000000	    -18.76097403	     -5.05762584	     -7.87044842	      0.26497845	      1.18280936	     -0.19812297	      0.00000000	      0.50000000	      0.00000000	      0.25000000	     24.03164939	    -16.55737572	      0.38475827	     63.02762847	      1.10003964	     -9.07327358	     -7.86426492	      0.00000000	      0.00000000	     23.71009457	    -14.89268200	    -10.79150323	     25.82714786	      0.45076877	     -2.62658600	      4.86298093	      0.00000000	      0.00000000	    -46.82715934	      3.70573309	      2.62445772	     75.40999252	      7.38456055	     60.04550170	     11.87760723	     46.04284151	      0.00000000	      0.00000000	     55.36434907	    -13.45029068	     13.26391949	     47.61405676	     50.37320387	      0.00000000	      0.00000000
      7.53500000	    -18.71206760	     -5.20625632	     -8.02992317	      0.26532717	      1.18321269	     -0.19891110	      0.00000000	      0.50000000	      0.00000000	      0.25000000	     24.21781103	    -16.67632378	      0.44932021	     64.07224122	      1.11827157	     -9.02066133	     -8.03878754	      0.00000000	      0.00000000	     23.57488555	    -15.01439776	    -10.67480168	     26.15392014	      0.45647202	     -2.67513032	      4.59720356	      0.00000000	      0.00000000	    -46.94732859	      3.76939316	      2.76230654	     75.45833991	      7.36048276	     60.09889257	     11.86733122	     46.04054067	      0.00000000	      0.00000000	     55.26453438	    -13.37962554	     13.15927465	     47.65038931	     50.37756662	      0.00000000	      0.00000000
      7.54000000	    -18.62630624	     -5.42812056	     -8.14991553	      0.26586957	      1.18380174	     -0.19973678	      0.00000000	      0.50000000	      0.00000000	      0.25000000	     24.28735531	    -16.76502175	      0.42443305	     65.00211307	      1.13450089	     -9.05954008	     -8.14866671	      0.00000000	      0.00000000	     23.30941696	    -15.17231527	    -10.55241064	     26.25943851	      0.45831366	     -2.73153619	      4.50574984	      0.00000000	      0.00000000	    -47.09638858	      3.92276381	      2.92860721	     75.32841322	      7.45437522	     60.13949754	     11.90815855	     46.05556454	      0.00000000	      0.00000000	     55.16799450	    -13.34325092	     13.13404967	     47.64724169	     50.37778889	      0.00000000	      0.00000000
